<svg width="50" height="50" viewBox="0 0 50 50" fill="none" xmlns="http://www.w3.org/2000/svg">
<path d="M39.5832 43.2295L34.7707 24.4795C36.55 22.2657 37.5137 19.5072 37.4999 16.667C37.4999 13.3518 36.1829 10.1724 33.8387 7.82816C31.4945 5.48395 28.3151 4.16699 24.9999 4.16699C21.6847 4.16699 18.5053 5.48395 16.1611 7.82816C13.8169 10.1724 12.4999 13.3518 12.4999 16.667C12.4942 19.5291 13.4807 22.3047 15.2916 24.5212L10.4166 43.2295C10.3129 43.6294 10.3304 44.051 10.4669 44.4409C10.6034 44.8308 10.8527 45.1713 11.1832 45.4191C11.5137 45.667 11.9103 45.811 12.3229 45.8329C12.7354 45.8547 13.1451 45.7535 13.4999 45.542L24.6041 39.0212L36.4374 45.5628C36.7572 45.7558 37.1268 45.85 37.4999 45.8337C37.8234 45.844 38.1448 45.7788 38.4387 45.6432C38.7327 45.5077 38.9909 45.3056 39.1931 45.0528C39.3953 44.8001 39.5358 44.5037 39.6036 44.1872C39.6713 43.8707 39.6643 43.5428 39.5832 43.2295ZM24.9999 8.33366C26.6481 8.33366 28.2592 8.8224 29.6296 9.73808C31.0001 10.6538 32.0682 11.9552 32.6989 13.478C33.3296 15.0007 33.4946 16.6762 33.1731 18.2927C32.8516 19.9093 32.0579 21.3941 30.8925 22.5595C29.727 23.725 28.2422 24.5187 26.6256 24.8402C25.0091 25.1617 23.3336 24.9967 21.8109 24.366C20.2881 23.7353 18.9867 22.6672 18.071 21.2967C17.1553 19.9263 16.6666 18.3152 16.6666 16.667C16.6666 14.4569 17.5445 12.3372 19.1073 10.7744C20.6701 9.21163 22.7898 8.33366 24.9999 8.33366ZM25.6457 34.8128C25.329 34.63 24.9698 34.5337 24.6041 34.5337C24.2384 34.5337 23.8791 34.63 23.5624 34.8128L15.7499 39.3962L18.7499 27.5212C20.6262 28.5996 22.7524 29.1671 24.9166 29.1671C27.0807 29.1671 29.207 28.5996 31.0832 27.5212L34.2707 39.5837L25.6457 34.8128Z" fill="#FFCC00"/>
</svg>
