<svg width="39" height="39" viewBox="0 0 39 39" fill="none" xmlns="http://www.w3.org/2000/svg">
<rect width="39" height="39" rx="19.5" fill="#1991A9"/>
<g clip-path="url(#clip0_340_2638)">
<path d="M9 11.25V9.915C9 9.40841 9.20072 8.92245 9.55824 8.56354C9.91575 8.20462 10.4009 8.00198 10.9075 8H22.345C22.8512 8.00264 23.3357 8.20557 23.6926 8.56441C24.0496 8.92326 24.25 9.40884 24.25 9.915V11.25H9Z" fill="#EAEAEA"/>
<path d="M16.75 26.25C16.75 28.8725 19.325 31 22.5 31C25.675 31 28.25 28.8725 28.25 26.25V16.75" stroke="#281A3B" stroke-linecap="round" stroke-linejoin="round"/>
<path d="M28.75 20.75H28.25H27.75V19.25L28.25 17.75L28.75 19.25V20.75Z" stroke="#281A3B" stroke-linecap="round" stroke-linejoin="round"/>
<path d="M22.345 8H18.5C20.57 8 22.25 9.68 22.25 11.25H24.25V9.915C24.25 9.40884 24.0496 8.92326 23.6926 8.56441C23.3357 8.20557 22.8512 8.00264 22.345 8Z" fill="#BACECE"/>
<path d="M24.25 11.25V18.565C24.25 20.5873 23.4467 22.5267 22.0167 23.9567C20.5867 25.3867 18.6473 26.19 16.625 26.19C14.6027 26.19 12.6633 25.3867 11.2333 23.9567C9.80335 22.5267 9 20.5873 9 18.565V11.25H24.25Z" fill="#F47C6D"/>
<path d="M22.25 11.25V18.565C22.2562 20.4219 21.5879 22.2179 20.3693 23.619C19.1507 25.0201 17.4648 25.9311 15.625 26.1825C16.7067 26.3277 17.8069 26.2386 18.8511 25.9213C19.8953 25.604 20.8591 25.0659 21.6771 24.3435C22.4951 23.621 23.1482 22.7311 23.5921 21.7341C24.0361 20.7371 24.2604 19.6563 24.25 18.565V11.25H22.25Z" fill="#D6544D"/>
<path d="M16.375 20.4375C15.34 20.4375 14.5 19.4725 14.5 18.495C14.5 17.0625 16.375 13.6875 16.375 13.6875C16.375 13.6875 18.25 17.0625 18.25 18.5C18.25 19.4725 17.41 20.4375 16.375 20.4375Z" fill="#D6544D"/>
<path d="M16.375 20.4375C15.34 20.4375 14.5 19.4725 14.5 18.495C14.5 17.0625 16.375 13.6875 16.375 13.6875C16.375 13.6875 18.25 17.0625 18.25 18.5C18.25 19.4725 17.41 20.4375 16.375 20.4375Z" stroke="#281A3B" stroke-linecap="round" stroke-linejoin="round"/>
<path d="M24.25 9.92V18.565C24.25 20.5873 23.4467 22.5267 22.0167 23.9567C20.5867 25.3867 18.6473 26.19 16.625 26.19C14.6027 26.19 12.6633 25.3867 11.2333 23.9567C9.80335 22.5267 9 20.5873 9 18.565V9.92C8.99999 9.41294 9.20056 8.92647 9.55793 8.56676C9.9153 8.20704 10.4005 8.0033 10.9075 8H22.345C22.8516 8.00396 23.3361 8.20799 23.693 8.56763C24.0498 8.92727 24.25 9.41337 24.25 9.92Z" stroke="#281A3B" stroke-linecap="round" stroke-linejoin="round"/>
</g>
<defs>
<clipPath id="clip0_340_2638">
<rect width="24" height="24" fill="white" transform="translate(7 7.5)"/>
</clipPath>
</defs>
</svg>
