<svg width="102" height="96" viewBox="0 0 102 96" fill="none" xmlns="http://www.w3.org/2000/svg">
<path d="M18.4776 49.7512V49.3605H1.38096C1.3356 49.2477 1.25237 49.1542 1.14557 49.096C1.03877 49.0378 0.915059 49.0187 0.795661 49.0418C0.676264 49.0649 0.568631 49.1288 0.491236 49.2226C0.413842 49.3164 0.37151 49.4342 0.37151 49.5559C0.37151 49.6775 0.413842 49.7953 0.491236 49.8891C0.568631 49.9829 0.676264 50.0468 0.795661 50.0699C0.915059 50.093 1.03877 50.0739 1.14557 50.0157C1.25237 49.9575 1.3356 49.864 1.38096 49.7512H18.4776Z" fill="#18BBFF"/>
<path d="M77.6384 71.9902C90.8879 58.7408 90.8879 37.2592 77.6384 24.0098C64.389 10.7603 42.9074 10.7603 29.6579 24.0098C16.4085 37.2592 16.4085 58.7408 29.6579 71.9902C42.9074 85.2397 64.389 85.2397 77.6384 71.9902Z" fill="#18BBFF"/>
<path opacity="0.7" d="M77.6384 71.9902C90.8879 58.7408 90.8879 37.2592 77.6384 24.0098C64.389 10.7603 42.9074 10.7603 29.6579 24.0098C16.4085 37.2592 16.4085 58.7408 29.6579 71.9902C42.9074 85.2397 64.389 85.2397 77.6384 71.9902Z" fill="white"/>
<path d="M37.6605 76.298L40.1539 64.155C46.3875 64.4168 55.1769 65.4641 56.1992 64.155C57.4459 62.8293 57.4251 59.6834 57.4999 56.6747L59.2328 54.7215C59.3743 54.2406 59.3555 53.7268 59.1793 53.2576C59.0032 52.7883 58.6792 52.389 58.2562 52.12C59.503 51.9122 60.5377 51.4468 61.078 50.3871L59.7772 46.4849C61.8219 46.302 63.8997 46.1524 64.8722 44.86C65.4914 43.5177 61.4478 36.0623 58.8006 30.4396C59.6775 29.5545 60.4629 28.9352 60.4255 26.6454L59.8853 20.1417C59.3866 17.8976 58.3892 16.4016 56.8474 15.6951C41.9076 14.9512 28.8171 21.1308 22.9035 37.9947C19.0221 53.2504 24.0172 67.8827 37.6605 76.298Z" fill="#D5C8C7"/>
<path d="M67.457 48.4212C66.714 48.4211 65.9721 48.3642 65.2378 48.2508L65.375 47.3614C67.9821 47.7721 70.6525 47.3928 73.0423 46.2726C77.5305 44.1283 77.6136 40.1887 77.6136 40.0391H78.5195C78.5195 40.2261 78.4613 44.7059 73.4412 47.1038C71.5703 47.9854 69.5252 48.4356 67.457 48.4212Z" fill="#18BBFF"/>
<path d="M65.9858 46.5391L63.4175 47.3702L65.4206 49.1779L65.9858 46.5391Z" fill="#18BBFF"/>
<path d="M73.0173 61.1588C73.1955 61.8801 73.3206 62.6134 73.3913 63.353L72.4937 63.4361C72.2617 60.8072 71.2486 58.3077 69.5847 56.2592C66.4222 52.4235 62.5781 53.3045 62.416 53.3502L62.1999 52.4733C62.3828 52.4276 66.7463 51.4053 70.2828 55.694C71.5914 57.2882 72.5259 59.1557 73.0173 61.1588Z" fill="#18BBFF"/>
<path d="M71.5461 63.0455L72.9715 65.3353L74.2432 62.9541L71.5461 63.0455Z" fill="#18BBFF"/>
<path d="M18.6855 47.9473H18.2699C18.2699 47.7976 18.2699 47.648 18.2699 47.4984C18.2699 46.7629 18.3073 46.0232 18.3655 45.2959L18.781 45.325C18.727 46.0439 18.6979 46.7753 18.6896 47.5026C18.6855 47.648 18.6855 47.7893 18.6855 47.9473Z" fill="#18BBFF"/>
<path d="M18.3862 50.9313C18.3197 50.1458 18.2782 49.3521 18.2657 48.5625H18.6813C18.6813 49.3438 18.7353 50.1292 18.8018 50.9063L18.3862 50.9313Z" fill="#18BBFF"/>
<path d="M21.8438 63.4405C20.0568 59.7859 18.9179 55.8487 18.4776 51.8045L18.8932 51.7588C19.3259 55.7556 20.4509 59.6466 22.2178 63.2577L21.8438 63.4405Z" fill="#18BBFF"/>
<path d="M24.2582 67.6242C23.7844 66.9135 23.3273 66.178 22.9034 65.4383L23.265 65.2305C23.6805 65.9619 24.1335 66.6891 24.6031 67.3914L24.2582 67.6242Z" fill="#18BBFF"/>
<path d="M26.8887 71.0618C26.2612 70.3387 25.642 69.5741 25.0852 68.7969L25.4218 68.5518C25.9828 69.3206 26.5854 70.0728 27.2046 70.7917L26.8887 71.0618Z" fill="#18BBFF"/>
<path d="M37.116 79.2191C33.6839 77.3976 30.5743 75.025 27.911 72.1959L28.2144 71.9092C30.8456 74.7051 33.9172 77.0509 37.3071 78.8534L37.116 79.2191Z" fill="#18BBFF"/>
<path d="M40.6525 80.8526C40.0209 80.6033 39.3809 80.329 38.7534 80.0215L38.9279 79.6475C39.5471 79.9342 40.1746 80.2085 40.8063 80.4537L40.6525 80.8526Z" fill="#18BBFF"/>
<path d="M44.2182 82.0494C43.387 81.8208 42.5559 81.5548 41.7247 81.2598L41.866 80.8691C42.6681 81.16 43.4951 81.4219 44.322 81.6504L44.2182 82.0494Z" fill="#18BBFF"/>
<path d="M53.6516 83.3257C50.9591 83.3261 48.2753 83.0208 45.6518 82.4156L45.7432 82C49.6927 82.9107 53.7695 83.1342 57.7948 82.6608L57.8405 83.0763C56.4503 83.2413 55.0516 83.3245 53.6516 83.3257Z" fill="#18BBFF"/>
<path d="M59.5652 82.8308L59.4987 82.4153C60.3631 82.2656 61.2317 82.0869 62.0836 81.875L62.1833 82.2906C61.3231 82.4984 60.4421 82.6978 59.5652 82.8308Z" fill="#18BBFF"/>
<path d="M63.5049 81.9286L63.3885 81.513C64.1989 81.2803 65.0176 81.0101 65.8155 80.7109L65.9609 81.1016C65.1505 81.4174 64.3236 81.6917 63.5049 81.9286Z" fill="#18BBFF"/>
<path d="M67.1204 80.6622L66.9625 80.2798C71.6448 78.3305 75.8539 75.3983 79.305 71.6816L79.6084 71.9642C76.1185 75.7265 71.8593 78.693 67.1204 80.6622Z" fill="#18BBFF"/>
<path d="M80.5601 70.8915L80.2443 70.6214C80.7887 69.9856 81.3165 69.3207 81.8152 68.6475L82.1476 68.8926C81.6448 69.5783 81.1087 70.2308 80.5601 70.8915Z" fill="#18BBFF"/>
<path d="M83.124 67.4997L82.7791 67.267C83.2986 66.4857 83.7931 65.6754 84.2502 64.8525L84.6118 65.0562C84.1505 65.8832 83.6518 66.706 83.124 67.4997Z" fill="#18BBFF"/>
<path d="M85.605 63.1243L85.231 62.9456C86.8388 59.5782 87.8913 55.973 88.3478 52.2695L88.7634 52.3194C88.2999 56.0677 87.2334 59.7164 85.605 63.1243Z" fill="#18BBFF"/>
<path d="M88.9462 50.4199L88.5306 50.3908C88.5888 49.5846 88.6137 48.7618 88.6137 47.9473H89.0293C89.0335 48.7701 89.0002 49.6054 88.9462 50.4199Z" fill="#18BBFF"/>
<path d="M88.5514 45.8075C88.4974 44.9098 88.4059 44.0039 88.2854 43.1146L88.701 43.0605C88.8257 43.9582 88.9171 44.8766 88.9711 45.7825L88.5514 45.8075Z" fill="#18BBFF"/>
<path d="M87.6455 39.7485C86.6165 35.4678 84.7831 31.4217 82.243 27.8257L82.5796 27.5889C85.1548 31.2214 87.0138 35.3116 88.0569 39.6405L87.6455 39.7485Z" fill="#18BBFF"/>
<path d="M81.1875 26.4212C80.5932 25.6607 79.9408 24.9168 79.305 24.2103L79.6083 23.9277C80.2691 24.6425 80.9132 25.3947 81.5158 26.1635L81.1875 26.4212Z" fill="#18BBFF"/>
<path d="M77.9585 22.8554C77.3351 22.2529 76.6827 21.6669 76.0177 21.11L76.2837 20.79C76.9569 21.3552 77.6177 21.9495 78.2494 22.5604L77.9585 22.8554Z" fill="#18BBFF"/>
<path d="M74.4428 19.8507C70.8128 17.1487 66.689 15.1835 62.3039 14.066L62.4078 13.6504C66.846 14.7895 71.018 16.7872 74.688 19.5307L74.4428 19.8507Z" fill="#18BBFF"/>
<path d="M61.0779 13.7755C60.305 13.6051 59.5112 13.4638 58.7216 13.3599L58.7798 12.9443C59.5819 13.0607 60.3839 13.2061 61.1694 13.3599L61.0779 13.7755Z" fill="#18BBFF"/>
<path d="M57.7824 13.2227C56.8349 13.1105 55.8708 13.0357 54.9108 13.0025V12.5869C55.8791 12.6243 56.8557 12.6991 57.8198 12.8113L57.7824 13.2227Z" fill="#18BBFF"/>
<path d="M42.5392 14.789L42.4062 14.3734C45.9143 13.1963 49.5859 12.5793 53.2859 12.5449H53.6516V12.9605H53.2942C49.6354 13.0007 46.0058 13.6177 42.5392 14.789Z" fill="#18BBFF"/>
<path d="M38.9777 16.2055L38.8032 15.8273C39.4972 15.5073 40.2078 15.204 40.9143 14.9297L41.0639 15.3162C40.3657 15.5905 39.6634 15.8897 38.9777 16.2055Z" fill="#18BBFF"/>
<path d="M35.886 17.8391L35.674 17.4817C36.2434 17.1451 36.8252 16.8209 37.407 16.5176L37.5981 16.8874C37.0205 17.1866 36.447 17.5066 35.886 17.8391Z" fill="#18BBFF"/>
<path d="M25.6297 27.0533L25.2972 26.804C27.7441 23.5266 30.7387 20.6965 34.1489 18.4385L34.3775 18.7834C31.0085 21.0176 28.0494 23.8151 25.6297 27.0533Z" fill="#18BBFF"/>
<path d="M23.8759 29.6296L23.5227 29.4135C23.7887 28.9979 24.0629 28.5533 24.3538 28.1377L24.6988 28.3746C24.412 28.7818 24.1377 29.2057 23.8759 29.6296Z" fill="#18BBFF"/>
<path d="M22.7414 31.6074L22.3757 31.4121C22.5461 31.088 22.7248 30.768 22.9035 30.4521L23.265 30.6558C23.0863 30.9716 22.9118 31.2874 22.7414 31.6074Z" fill="#18BBFF"/>
<path d="M18.9638 43.5087L18.5483 43.4547C18.9944 39.9471 19.9681 36.5271 21.4365 33.3105L21.8147 33.4851C20.3645 36.6635 19.4034 40.0429 18.9638 43.5087Z" fill="#18BBFF"/>
</svg>
