<svg width="24" height="24" viewBox="0 0 24 24" fill="none" xmlns="http://www.w3.org/2000/svg">
<path d="M11.4375 9.8627C11.55 9.7877 11.625 9.6752 11.625 9.5252V2.8877C11.625 2.6627 11.475 2.5127 11.25 2.5127C11.025 2.5127 10.875 2.6627 10.875 2.8877V9.3377C10.6875 9.4502 10.35 9.6752 9.9 9.9377V10.8377C10.7625 10.2377 11.4 9.8627 11.4375 9.8627Z" fill="#BEBEBE"/>
<path d="M13.0125 9.3377V2.8877C13.0125 2.6627 12.8625 2.5127 12.6375 2.5127C12.4125 2.5127 12.2625 2.6627 12.2625 2.8877V9.5252C12.2625 9.6752 12.3375 9.78769 12.45 9.86269C12.4875 9.86269 13.1625 10.3127 14.1 10.9502V10.0502C13.6125 9.71269 13.2375 9.4502 13.0125 9.3377Z" fill="#BEBEBE"/>
<path d="M12.15 10.4998C12.075 10.4623 11.9625 10.4623 11.8875 10.4998C11.2125 10.7623 10.575 11.0998 9.9 11.5123V12.4123C10.575 11.9248 11.2875 11.5123 12 11.2123C12.7125 11.5123 13.425 11.9248 14.1 12.4123V11.5123C13.4625 11.0998 12.7875 10.7248 12.15 10.4998Z" fill="#BEBEBE"/>
<path d="M8.7375 6.52561C8.475 6.30061 8.175 6.22561 7.875 6.26311C3.4125 6.82561 1.275 11.1006 1.125 19.6506C1.125 19.9131 1.2375 20.1381 1.3875 20.3256C1.575 20.5131 1.8375 20.6256 2.1 20.6256H4.875C7.2375 20.6256 9.15 18.7131 9.15 16.3506V12.9756C8.2875 13.6506 7.4625 14.4381 6.75 15.1506C6.6375 16.2756 7.425 17.7006 7.425 17.7006C7.5375 17.8881 7.4625 18.1131 7.275 18.2256C7.2 18.2631 7.1625 18.2631 7.0875 18.2631C6.9375 18.2631 6.825 18.1881 6.75 18.0756C6.7125 18.0381 6.1875 17.0256 6 15.9006C4.875 17.1006 4.1625 18.0756 4.125 18.1131C4.05 18.2256 3.9375 18.2631 3.825 18.2631C3.75 18.2631 3.675 18.2256 3.6 18.1881C3.45 18.0756 3.4125 17.8131 3.525 17.6631C3.675 17.4756 6.1125 14.2131 9.1125 12.0381V11.3631C7.2375 12.6756 4.8 14.5881 4.1625 16.0506C4.0875 16.2006 3.975 16.2756 3.825 16.2756C3.7875 16.2756 3.7125 16.2756 3.675 16.2381C3.4875 16.1631 3.4125 15.9381 3.4875 15.7506C3.9 14.8131 4.875 13.7631 6.0375 12.7881C4.6875 12.6756 3.75 12.2631 3.675 12.2256C3.4875 12.1506 3.4125 11.9256 3.4875 11.7381C3.5625 11.5506 3.7875 11.4756 3.975 11.5506C3.975 11.5506 5.25 12.1131 6.9 12.0381C7.65 11.4381 8.4375 10.8756 9.1125 10.4256V7.38811C9.15 7.08811 9 6.75061 8.7375 6.52561Z" fill="#BEBEBE"/>
<path d="M16.125 6.33733C15.7875 6.29983 15.4875 6.37483 15.2625 6.59983C15 6.82483 14.85 7.16233 14.85 7.49983V10.5373C15.4875 10.9873 16.2 11.5123 16.9125 12.0748C18.5625 12.1498 19.8375 11.5873 19.8375 11.5873C20.025 11.5123 20.25 11.5873 20.325 11.7748C20.4 11.9623 20.325 12.1873 20.1375 12.2623C20.1 12.2998 19.1625 12.7123 17.775 12.8248C18.9 13.7998 19.9125 14.8498 20.325 15.7873C20.4 15.9748 20.325 16.1998 20.1375 16.2748C20.1 16.3123 20.025 16.3123 19.9875 16.3123C19.8375 16.3123 19.6875 16.2373 19.65 16.0873C19.05 14.6248 16.6875 12.7498 14.85 11.4373V12.0373C17.85 14.2498 20.2875 17.5123 20.4375 17.6623C20.55 17.8123 20.5125 18.0748 20.3625 18.1873C20.2125 18.2998 19.95 18.2623 19.8375 18.1123C19.8375 18.0748 19.0875 17.1373 17.9625 15.8998C17.8125 16.9873 17.25 17.9998 17.2125 18.0748C17.1375 18.1873 17.025 18.2623 16.875 18.2623C16.8 18.2623 16.7625 18.2623 16.6875 18.2248C16.5 18.1123 16.425 17.8873 16.5375 17.6998C16.5375 17.6998 17.325 16.2748 17.2125 15.1498C16.5 14.4373 15.675 13.6498 14.8125 12.9748V16.4623C14.8125 18.8248 16.725 20.7373 19.0875 20.7373H21.8625C22.125 20.7373 22.3875 20.6248 22.575 20.4373C22.7625 20.2498 22.875 19.9873 22.8375 19.7623C22.725 11.1748 20.5875 6.93733 16.125 6.33733Z" fill="#BEBEBE"/>
</svg>
