<svg width="19" height="19" viewBox="0 0 19 19" fill="none" xmlns="http://www.w3.org/2000/svg">
<g clip-path="url(#clip0_122_9728)">
<path d="M9.5 2C8.01664 2 6.5666 2.43987 5.33323 3.26398C4.09986 4.08809 3.13856 5.25943 2.57091 6.62987C2.00325 8.00032 1.85472 9.50832 2.14411 10.9632C2.4335 12.418 3.14781 13.7544 4.1967 14.8033C5.2456 15.8522 6.58197 16.5665 8.03683 16.8559C9.49168 17.1453 10.9997 16.9968 12.3701 16.4291C13.7406 15.8614 14.9119 14.9001 15.736 13.6668C16.5601 12.4334 17 10.9834 17 9.5C17 8.51509 16.806 7.53982 16.4291 6.62987C16.0522 5.71993 15.4997 4.89314 14.8033 4.1967C14.1069 3.50026 13.2801 2.94781 12.3701 2.5709C11.4602 2.19399 10.4849 2 9.5 2ZM9.5 15.5C8.31332 15.5 7.15328 15.1481 6.16658 14.4888C5.17989 13.8295 4.41085 12.8925 3.95673 11.7961C3.5026 10.6997 3.38378 9.49334 3.61529 8.32946C3.8468 7.16557 4.41825 6.09647 5.25736 5.25736C6.09648 4.41824 7.16558 3.8468 8.32946 3.61529C9.49335 3.38378 10.6997 3.5026 11.7961 3.95672C12.8925 4.41085 13.8295 5.17988 14.4888 6.16658C15.1481 7.15327 15.5 8.31331 15.5 9.5C15.5 11.0913 14.8679 12.6174 13.7426 13.7426C12.6174 14.8679 11.0913 15.5 9.5 15.5Z" fill="#1991A9"/>
<path d="M9.5 5.75C8.75832 5.75 8.0333 5.96993 7.41661 6.38199C6.79993 6.79404 6.31928 7.37971 6.03545 8.06494C5.75162 8.75016 5.67736 9.50416 5.82206 10.2316C5.96675 10.959 6.3239 11.6272 6.84835 12.1517C7.3728 12.6761 8.04098 13.0333 8.76841 13.1779C9.49584 13.3226 10.2498 13.2484 10.9351 12.9645C11.6203 12.6807 12.206 12.2001 12.618 11.5834C13.0301 10.9667 13.25 10.2417 13.25 9.5C13.25 8.50544 12.8549 7.55161 12.1517 6.84835C11.4484 6.14509 10.4946 5.75 9.5 5.75ZM9.5 11.75C9.05499 11.75 8.61998 11.618 8.24997 11.3708C7.87996 11.1236 7.59157 10.7722 7.42127 10.361C7.25098 9.9499 7.20642 9.4975 7.29323 9.06105C7.38005 8.62459 7.59434 8.22368 7.90901 7.90901C8.22368 7.59434 8.62459 7.38005 9.06105 7.29323C9.49751 7.20642 9.94991 7.25097 10.361 7.42127C10.7722 7.59157 11.1236 7.87996 11.3708 8.24997C11.618 8.61998 11.75 9.05499 11.75 9.5C11.75 10.0967 11.5129 10.669 11.091 11.091C10.669 11.5129 10.0967 11.75 9.5 11.75Z" fill="#1991A9"/>
</g>
<defs>
<clipPath id="clip0_122_9728">
<rect width="18" height="18" fill="white" transform="translate(0.5 0.5)"/>
</clipPath>
</defs>
</svg>
