<svg width="25" height="24" viewBox="0 0 25 24" fill="none" xmlns="http://www.w3.org/2000/svg">
<path d="M14.83 20.0002H14.62C14.1968 19.9582 13.7979 19.7824 13.4814 19.4983C13.1649 19.2141 12.9472 18.8365 12.86 18.4202L10.18 6.00023L7.42 12.4002C7.34193 12.5791 7.21323 12.7312 7.04975 12.8378C6.88627 12.9445 6.69517 13.0009 6.5 13.0002H3.5C3.23478 13.0002 2.98043 12.8949 2.79289 12.7073C2.60536 12.5198 2.5 12.2654 2.5 12.0002C2.5 11.735 2.60536 11.4807 2.79289 11.2931C2.98043 11.1056 3.23478 11.0002 3.5 11.0002H5.84L8.35 5.21023C8.51896 4.82169 8.80695 4.49685 9.17244 4.28254C9.53793 4.06823 9.96203 3.97552 10.3836 4.01779C10.8052 4.06006 11.2024 4.23512 11.5181 4.51772C11.8338 4.80033 12.0515 5.17588 12.14 5.59023L14.82 18.0002L17.58 11.6202C17.655 11.4376 17.7824 11.2813 17.9461 11.1709C18.1099 11.0606 18.3026 11.0012 18.5 11.0002H21.5C21.7652 11.0002 22.0196 11.1056 22.2071 11.2931C22.3946 11.4807 22.5 11.735 22.5 12.0002C22.5 12.2654 22.3946 12.5198 22.2071 12.7073C22.0196 12.8949 21.7652 13.0002 21.5 13.0002H19.16L16.65 18.7902C16.4967 19.1467 16.2431 19.451 15.9199 19.6658C15.5967 19.8807 15.218 19.9969 14.83 20.0002Z" fill="#18BBFF"/>
</svg>
