<svg width="39" height="40" viewBox="0 0 39 40" fill="none" xmlns="http://www.w3.org/2000/svg">
<rect y="0.357422" width="39" height="39" rx="19.5" fill="#1991A9"/>
<g clip-path="url(#clip0_340_2567)">
<path d="M23 18.8574C22.5 19.3574 22 19.8574 21 19.8574C19 19.8574 19 17.8574 17 17.8574C16 17.8574 15.5 18.3574 15 18.8574V13.3574H23V18.8574Z" fill="#EAEAEA"/>
<path d="M21 13.3574V19.8574C22 19.8574 22.5 19.3574 23 18.8574V13.3574H21Z" fill="#C2D2D3"/>
<path d="M23.75 8.35742H14.25C13.5596 8.35742 13 8.91707 13 9.60742V12.1074C13 12.7978 13.5596 13.3574 14.25 13.3574H23.75C24.4404 13.3574 25 12.7978 25 12.1074V9.60742C25 8.91707 24.4404 8.35742 23.75 8.35742Z" fill="#575072"/>
<path d="M23.75 8.35742H21.75C22.0815 8.35742 22.3995 8.48912 22.6339 8.72354C22.8683 8.95796 23 9.2759 23 9.60742V12.1074C23 12.4389 22.8683 12.7569 22.6339 12.9913C22.3995 13.2257 22.0815 13.3574 21.75 13.3574H23.75C24.0815 13.3574 24.3995 13.2257 24.6339 12.9913C24.8683 12.7569 25 12.4389 25 12.1074V9.60742C25 9.2759 24.8683 8.95796 24.6339 8.72354C24.3995 8.48912 24.0815 8.35742 23.75 8.35742Z" fill="#363354"/>
<path d="M23.75 8.35742H14.25C13.5596 8.35742 13 8.91707 13 9.60742V12.1074C13 12.7978 13.5596 13.3574 14.25 13.3574H23.75C24.4404 13.3574 25 12.7978 25 12.1074V9.60742C25 8.91707 24.4404 8.35742 23.75 8.35742Z" stroke="#281A3B" stroke-width="0.958333" stroke-linecap="round" stroke-linejoin="round"/>
<path d="M15 18.8574V27.3574C15 28.4183 15.4214 29.4357 16.1716 30.1858C16.9217 30.936 17.9391 31.3574 19 31.3574C20.0609 31.3574 21.0783 30.936 21.8284 30.1858C22.5786 29.4357 23 28.4183 23 27.3574V18.8574C22.5 19.3574 22 19.8574 21 19.8574C19 19.8574 19 17.8574 17 17.8574C16 17.8574 15.5 18.3574 15 18.8574Z" fill="#F47C6D"/>
<path d="M21 19.8574V27.3574C20.9993 28.2437 20.7044 29.1046 20.1614 29.8051C19.6184 30.5056 18.8581 31.0059 18 31.2274C18.591 31.3831 19.21 31.4007 19.8089 31.279C20.4079 31.1572 20.9708 30.8993 21.4542 30.5252C21.9375 30.1511 22.3283 29.6708 22.5964 29.1215C22.8644 28.5722 23.0025 27.9686 23 27.3574V18.8574C22.5 19.3574 22 19.8574 21 19.8574Z" fill="#D6544D"/>
<path d="M15 18.8574C15.5 18.3574 16 17.8574 17 17.8574C19 17.8574 19 19.8574 21 19.8574C22 19.8574 22.5 19.3574 23 18.8574" stroke="#281A3B" stroke-width="0.958333" stroke-linecap="round" stroke-linejoin="round"/>
<path d="M23 13.3574V27.3574C22.999 28.2162 22.7216 29.0518 22.2089 29.7407C21.6962 30.4296 20.9754 30.9352 20.1531 31.1828C19.3308 31.4303 18.4507 31.4067 17.6429 31.1153C16.8351 30.824 16.1425 30.2804 15.6675 29.5649C15.6325 29.5124 15.5975 29.4574 15.5675 29.4024C15.1939 28.7859 14.9975 28.0783 15 27.3574V13.3574H23Z" stroke="#281A3B" stroke-width="0.958333" stroke-linecap="round" stroke-linejoin="round"/>
</g>
<defs>
<clipPath id="clip0_340_2567">
<rect width="24" height="24" fill="white" transform="translate(7 7.85742)"/>
</clipPath>
</defs>
</svg>
