<svg width="39" height="39" viewBox="0 0 39 39" fill="none" xmlns="http://www.w3.org/2000/svg">
<rect width="39" height="39" rx="19.5" fill="#1991A9"/>
<path d="M19 30C16.0858 29.5838 13.4195 28.1304 11.4906 25.9065C9.56183 23.6827 8.49996 20.8377 8.5 17.8939V12.75C8.99246 12.75 9.48009 12.653 9.93506 12.4645C10.39 12.2761 10.8034 11.9999 11.1517 11.6517C11.4999 11.3034 11.7761 10.89 11.9645 10.4351C12.153 9.98009 12.25 9.49246 12.25 9H25.75C25.75 9.99456 26.1451 10.9484 26.8484 11.6517C27.5516 12.3549 28.5054 12.75 29.5 12.75V17.8939C29.5 20.8377 28.4382 23.6827 26.5094 25.9065C24.5805 28.1304 21.9142 29.5838 19 30Z" fill="#838EB1"/>
<path d="M12.2402 9.55087C13.5839 9.55087 14.3402 9.9555 15.6854 9.9555C17.0305 9.9555 17.0301 9 18.3749 9C19.7196 9 19.7207 9.95438 21.0662 9.95438C22.4117 9.95438 21.9333 9.16125 23.2548 9.4155C23.2746 9.9999 23.3934 10.5767 23.6061 11.1214C23.8004 11.5882 24.8646 11.4877 25.2186 11.8395C25.5726 12.1912 25.4706 13.2529 25.9382 13.4464C26.3882 13.6339 26.9485 13.3669 27.4679 13.3669C27.7045 13.8919 27.1086 13.8697 27.1086 14.4446C27.1086 15.0195 28.0656 15.5951 28.0656 16.1696C28.0656 16.7441 27.1086 16.7453 27.1086 17.3212C27.1086 17.8973 27.8088 18.4088 27.8088 18.9829C27.8088 20.2178 26.9504 20.1971 26.6181 21.3341C26.2765 22.5041 26.6331 23.9989 25.9874 25.0091C25.3364 26.0269 23.8244 26.3344 22.9124 27.132C22.0124 27.9221 20.6766 29.0854 19.5689 29.6025L18.9738 30C25.0694 28.8945 29.5 24.3701 29.5 17.4206V12.75C29.0015 12.7584 28.5064 12.6677 28.0433 12.4832C27.5801 12.2987 27.1583 12.024 26.8021 11.6752C26.446 11.3263 26.1627 10.9102 25.9687 10.4509C25.7747 9.99171 25.6739 9.49852 25.672 9H12.2732L12.2402 9.55087Z" fill="#617093"/>
<path d="M19 27.75C16.6851 27.3293 14.5912 26.1095 13.0835 24.3031C11.5759 22.4968 10.75 20.2186 10.75 17.8658V14.25C11.5456 14.25 12.3087 13.9339 12.8713 13.3713C13.4339 12.8087 13.75 12.0456 13.75 11.25H24.25C24.25 12.0456 24.5661 12.8087 25.1287 13.3713C25.6913 13.9339 26.4544 14.25 27.25 14.25V17.8658C27.25 20.2186 26.4241 22.4968 24.9165 24.3031C23.4088 26.1095 21.3149 27.3293 19 27.75Z" fill="#D7E6F9"/>
<path d="M13.7241 11.682C14.7771 11.682 15.3707 12 16.4241 12C17.4775 12 17.4782 11.25 18.532 11.25C19.5857 11.25 19.5865 12 20.641 12C21.6955 12 21.3205 11.3767 22.3562 11.5762C22.3717 12.0354 22.4648 12.4887 22.6315 12.9169C22.7837 13.2836 23.6177 13.2049 23.8941 13.4794C24.1705 13.7539 24.0917 14.5898 24.4585 14.742C24.8121 14.8886 25.2501 14.6794 25.6585 14.6794C25.8437 15.0919 25.3769 15.0746 25.3769 15.5261C25.3769 15.9776 26.1269 16.4302 26.1269 16.8818C26.1269 17.3333 25.3769 17.334 25.3769 17.7863C25.3769 18.2385 25.9255 18.6398 25.9255 19.0924C25.9255 20.0625 25.2531 20.0464 24.9925 20.9396C24.7247 21.8591 25.0045 23.0333 24.4982 23.8271C23.9882 24.627 22.8032 24.8685 22.0896 25.4955C21.3831 26.1161 20.3376 27.03 19.4695 27.4365L19 27.75C21.3149 27.3292 23.4087 26.1094 24.9164 24.3031C26.424 22.4967 27.2499 20.2186 27.25 17.8658V14.25C26.4543 14.25 25.6913 13.9339 25.1287 13.3713C24.5661 12.8087 24.25 12.0456 24.25 11.25H13.75L13.7241 11.682Z" fill="#CCD3DD"/>
<path d="M23.875 17.625H20.5V14.25H17.5V17.625H14.125V20.625H17.5V24H20.5V20.625H23.875V17.625Z" fill="#F95555"/>
<path d="M19 30.375C18.9822 30.3751 18.9644 30.3738 18.9467 30.3713C15.9486 29.9302 13.2079 28.4287 11.2223 26.1394C9.23671 23.8501 8.13777 20.9247 8.125 17.8942V12.75C8.125 12.6505 8.16451 12.5552 8.23483 12.4848C8.30516 12.4145 8.40054 12.375 8.5 12.375C9.3948 12.374 10.2527 12.0181 10.8854 11.3854C11.5181 10.7527 11.874 9.8948 11.875 9C11.875 8.90054 11.9145 8.80516 11.9848 8.73483C12.0552 8.66451 12.1505 8.625 12.25 8.625H25.75C25.8495 8.625 25.9448 8.66451 26.0152 8.73483C26.0855 8.80516 26.125 8.90054 26.125 9C26.126 9.8948 26.4819 10.7527 27.1146 11.3854C27.7473 12.0181 28.6052 12.374 29.5 12.375C29.5995 12.375 29.6948 12.4145 29.7652 12.4848C29.8355 12.5552 29.875 12.6505 29.875 12.75V17.8942C29.8623 20.9246 28.7634 23.8499 26.778 26.1392C24.7925 28.4285 22.052 29.93 19.054 30.3713C19.0361 30.3738 19.0181 30.3751 19 30.375ZM8.875 13.1081V17.8942C8.88695 20.7352 9.91388 23.4783 11.7705 25.6287C13.6271 27.7791 16.1912 29.1951 19 29.6213C21.8088 29.1951 24.3729 27.7791 26.2295 25.6287C28.0861 23.4783 29.1131 20.7352 29.125 17.8942V13.1081C28.1649 13.0194 27.2661 12.5975 26.5843 11.9157C25.9025 11.2339 25.4806 10.3351 25.3919 9.375H12.6081C12.5194 10.3351 12.0975 11.2339 11.4157 11.9157C10.7339 12.5975 9.83511 13.0194 8.875 13.1081Z" fill="black"/>
<path d="M19 28.125C18.9775 28.1249 18.955 28.1228 18.9329 28.1186C16.5311 27.6832 14.3586 26.4181 12.7945 24.5442C11.2304 22.6703 10.3741 20.3066 10.375 17.8658V14.25C10.375 14.1505 10.4145 14.0552 10.4848 13.9848C10.5552 13.9145 10.6505 13.875 10.75 13.875C11.4459 13.8741 12.1131 13.5973 12.6052 13.1052C13.0973 12.6131 13.3741 11.9459 13.375 11.25C13.375 11.1505 13.4145 11.0552 13.4848 10.9848C13.5552 10.9145 13.6505 10.875 13.75 10.875H24.25C24.3495 10.875 24.4448 10.9145 24.5152 10.9848C24.5855 11.0552 24.625 11.1505 24.625 11.25C24.6259 11.9459 24.9027 12.6131 25.3948 13.1052C25.8869 13.5973 26.5541 13.8741 27.25 13.875C27.3495 13.875 27.4448 13.9145 27.5152 13.9848C27.5855 14.0552 27.625 14.1505 27.625 14.25V17.8658C27.626 20.3065 26.7697 22.6701 25.2058 24.544C23.6418 26.4179 21.4695 27.683 19.0679 28.1186C19.0455 28.1229 19.0228 28.125 19 28.125ZM11.125 14.604V17.8665C11.1243 20.1199 11.9109 22.3028 13.3488 24.0378C14.7868 25.7728 16.7856 26.951 19 27.3686C21.2145 26.9509 23.2135 25.7727 24.6514 24.0375C26.0893 22.3023 26.8758 20.1193 26.875 17.8658V14.6032C26.1147 14.5172 25.4061 14.1757 24.865 13.6348C24.3239 13.0938 23.9823 12.3853 23.896 11.625H14.104C14.0179 12.3854 13.6763 13.0941 13.1352 13.6352C12.5941 14.1763 11.8854 14.5179 11.125 14.604Z" fill="black"/>
<path d="M20.5 24V20.625H23.875V17.625H20.5V14.25H18.6603C18.3648 14.721 18.4915 15.0536 18.8103 15.4579C19.0893 15.8096 19.8265 16.1543 19.6251 16.7078C19.4826 17.0989 18.9876 17.0659 18.727 17.3351C18.4004 17.6726 18.5748 18.1564 18.8523 18.4601C19.1819 18.8231 19.4241 18.7185 19.8325 18.8584C19.8999 18.8925 19.9583 18.942 20.003 19.0029C20.0476 19.0638 20.0773 19.1344 20.0896 19.2089C20.1018 19.2834 20.0964 19.3598 20.0736 19.4318C20.0508 19.5038 20.0114 19.5695 19.9585 19.6234C19.6 19.9256 18.4424 19.8521 18.7908 20.5931C18.9929 21.0229 19.6705 20.7007 19.7594 21.1931C19.8483 21.6855 19.279 21.9499 19.1268 22.3556C18.9873 22.7306 19.2449 23.0149 19.3923 23.3333C19.5179 23.5312 19.5622 23.7701 19.516 24H20.5Z" fill="#D81D1D"/>
<path d="M20.5 24.375H17.5C17.4005 24.375 17.3052 24.3355 17.2348 24.2652C17.1645 24.1948 17.125 24.0995 17.125 24V21H14.125C14.0255 21 13.9302 20.9605 13.8598 20.8902C13.7895 20.8198 13.75 20.7245 13.75 20.625V17.625C13.75 17.5255 13.7895 17.4302 13.8598 17.3598C13.9302 17.2895 14.0255 17.25 14.125 17.25H17.125V14.25C17.125 14.1505 17.1645 14.0552 17.2348 13.9848C17.3052 13.9145 17.4005 13.875 17.5 13.875H20.5C20.5995 13.875 20.6948 13.9145 20.7652 13.9848C20.8355 14.0552 20.875 14.1505 20.875 14.25V17.25H23.875C23.9745 17.25 24.0698 17.2895 24.1402 17.3598C24.2105 17.4302 24.25 17.5255 24.25 17.625V20.625C24.25 20.7245 24.2105 20.8198 24.1402 20.8902C24.0698 20.9605 23.9745 21 23.875 21H20.875V24C20.875 24.0995 20.8355 24.1948 20.7652 24.2652C20.6948 24.3355 20.5995 24.375 20.5 24.375ZM17.875 23.625H20.125V20.625C20.125 20.5255 20.1645 20.4302 20.2348 20.3598C20.3052 20.2895 20.4005 20.25 20.5 20.25H23.5V18H20.5C20.4005 18 20.3052 17.9605 20.2348 17.8902C20.1645 17.8198 20.125 17.7245 20.125 17.625V14.625H17.875V17.625C17.875 17.7245 17.8355 17.8198 17.7652 17.8902C17.6948 17.9605 17.5995 18 17.5 18H14.5V20.25H17.5C17.5995 20.25 17.6948 20.2895 17.7652 20.3598C17.8355 20.4302 17.875 20.5255 17.875 20.625V23.625Z" fill="black"/>
</svg>
