<svg width="39" height="40" viewBox="0 0 39 40" fill="none" xmlns="http://www.w3.org/2000/svg">
<rect y="0.357422" width="39" height="39" rx="19.5" fill="#1991A9"/>
<path d="M18.1295 12.3896C18.0827 12.3802 18.0391 12.3722 17.9936 12.3643C18.0391 12.3722 18.0845 12.3802 18.1295 12.3896Z" fill="#E84857"/>
<path d="M26.3402 15.964C26.3351 16.2471 26.2341 16.5201 26.0538 16.7383C25.8734 16.9565 25.6244 17.1071 25.3473 17.1654C24.9048 17.2625 24.3583 17.3801 23.8033 17.4987C25.4345 21.0247 24.8289 24.9476 22.4613 27.8848L22.4538 27.8792C21.8805 28.7792 20.208 30.7522 18.1881 30.7325C14.6945 30.6983 12.7445 25.7937 12.3948 24.9144C12.1524 24.289 11.968 23.6427 11.8441 22.9836C11.5239 21.3298 11.5731 19.865 12.3559 18.3162C12.0967 16.8631 12.377 15.3397 13.3277 14.1739V10.8973C13.3277 10.0634 14.3378 9.6556 14.9214 10.2378C15.0081 10.3243 15.0769 10.4271 15.1238 10.5403C15.1707 10.6535 15.1948 10.7748 15.1947 10.8973V12.754C15.7666 12.4922 16.3826 12.34 17.0106 12.3054V9.86795C17.0106 9.0781 17.9683 8.69185 18.5195 9.2431C18.6017 9.32507 18.6669 9.42247 18.7113 9.5297C18.7557 9.63693 18.7785 9.75189 18.7783 9.86795V12.582C19.7289 12.9458 20.5642 13.6601 21.1455 14.7289H25.1083C25.2704 14.7288 25.4309 14.7606 25.5806 14.8227C25.7303 14.8848 25.8663 14.9758 25.9808 15.0906C26.0952 15.2053 26.1859 15.3416 26.2476 15.4915C26.3093 15.6414 26.3407 15.802 26.3402 15.964Z" fill="#E84857"/>
<path d="M26.3402 15.9636C26.3351 16.2467 26.2341 16.5197 26.0538 16.7379C25.8734 16.9561 25.6244 17.1067 25.3474 17.165C24.0977 17.4393 21.235 18.0449 20.9636 18.1025C20.4855 18.2044 20.0532 18.4582 19.7312 18.8259C19.4092 19.1936 19.2147 19.6556 19.1768 20.143C19.1389 20.6303 19.2596 21.1168 19.5208 21.53C19.7821 21.9431 20.17 22.2606 20.6266 22.4352C22.8803 23.2921 23.7672 26.0647 22.3263 28.0654C21.3494 29.4125 19.8728 30.7475 18.19 30.7311C14.6964 30.6969 12.7464 25.7924 12.3967 24.913C12.047 24.0336 11.8108 22.9911 11.7091 22.1005C11.2361 18.006 14.3809 14.7275 18.19 14.7275H25.1092C25.2713 14.7275 25.4318 14.7595 25.5815 14.8217C25.7312 14.8839 25.8671 14.975 25.9815 15.0899C26.0958 15.2047 26.1864 15.341 26.2479 15.491C26.3095 15.6409 26.3408 15.8016 26.3402 15.9636Z" fill="#FE4F60"/>
<path d="M26.2473 15.4916C26.2967 15.6143 26.3153 15.7472 26.3013 15.8787C26.2874 16.0102 26.2414 16.1363 26.1673 16.2459C26.0933 16.3555 25.9935 16.4452 25.8767 16.5072C25.7598 16.5692 25.6296 16.6016 25.4973 16.6016H20.065C16.3652 16.6016 13.4612 19.671 13.5362 23.2035C13.5564 24.1738 12.1689 24.3519 11.9397 23.4092C11.8143 22.9063 11.7299 22.394 11.6875 21.8774C11.3856 17.7524 14.5417 14.7266 18.1909 14.7266H25.1092C25.3538 14.7252 25.5931 14.7974 25.7961 14.9338C25.9991 15.0703 26.1563 15.2646 26.2473 15.4916Z" fill="#FF6D7A"/>
<path d="M23.1817 16.3198C23.1024 16.3198 23.0252 16.2947 22.9611 16.248C22.897 16.2014 22.8494 16.1356 22.825 16.0602C22.6422 15.4977 22.285 15.0594 21.8106 14.7266H22.9211C23.1979 15.0497 23.4078 15.4246 23.5384 15.8295C23.5566 15.8858 23.5612 15.9455 23.5519 16.0039C23.5426 16.0623 23.5196 16.1177 23.4848 16.1655C23.4501 16.2133 23.4045 16.2522 23.3518 16.279C23.2991 16.3058 23.2408 16.3198 23.1817 16.3198Z" fill="#E84857"/>
<path d="M16.6877 22.8318C16.6754 22.7841 16.6538 22.7392 16.6242 22.6999C16.5945 22.6605 16.5574 22.6273 16.515 22.6023C16.4726 22.5773 16.4256 22.5609 16.3768 22.554C16.328 22.5471 16.2783 22.5499 16.2306 22.5623C14.7171 22.9601 13.1107 22.7957 11.7091 22.0996C11.7419 22.3879 11.7911 22.6987 11.8459 22.9832C12.5005 23.2524 13.1912 23.4238 13.8958 23.4918C14.4583 23.6671 14.8291 24.1527 14.7723 24.7574C14.763 24.8564 14.7934 24.9551 14.8568 25.0317C14.9203 25.1083 15.0115 25.1566 15.1105 25.1659C15.2096 25.1753 15.3082 25.1449 15.3848 25.0814C15.4615 25.018 15.5097 24.9268 15.5191 24.8277C15.5674 24.3555 15.4381 23.8822 15.1562 23.5002C15.5817 23.4658 16.0033 23.395 16.4167 23.2888C16.4646 23.2767 16.5095 23.2552 16.5491 23.2257C16.5886 23.1961 16.6219 23.159 16.6471 23.1166C16.6723 23.0741 16.6888 23.0271 16.6958 22.9782C16.7027 22.9294 16.7 22.8796 16.6877 22.8318Z" fill="#E84857"/>
<path d="M24.047 18.0718C24.0847 18.1681 24.1009 18.2714 24.0946 18.3746C24.0883 18.4778 24.0596 18.5783 24.0105 18.6693C23.9615 18.7603 23.8932 18.8395 23.8105 18.9014C23.7277 18.9634 23.6325 19.0066 23.5314 19.0281C22.5784 19.2306 21.7994 19.3951 21.7595 19.4031C21.3153 19.4962 20.9095 19.7212 20.5952 20.0486C20.0205 20.6476 19.0483 19.9689 19.4402 19.2367C19.5941 18.9466 19.8106 18.6944 20.0739 18.4981C20.3372 18.3019 20.6407 18.1665 20.9627 18.1018C21.017 18.0906 22.4364 17.7915 23.8024 17.499C23.8806 17.6659 23.9636 17.8571 24.047 18.0718Z" fill="#CC3F4C"/>
<path d="M16.5095 12.3579C15.5797 12.5098 14.7077 12.9083 13.9844 13.5119V11.5539C13.9842 11.3889 14.0279 11.2268 14.111 11.0842C14.1941 10.9416 14.3136 10.8237 14.4573 10.7425C14.8239 10.5335 14.7039 9.92785 14.1873 9.9677C13.6984 10.0052 13.3281 10.4275 13.3281 10.9179V14.1743C12.3761 15.3414 12.0977 16.8668 12.3564 18.3166C12.6285 17.7785 12.9737 17.2805 13.382 16.8368C13.8428 15.1436 15.2102 13.9193 16.7683 13.45C17.44 13.2485 17.2009 12.2491 16.5095 12.3579Z" fill="#FE4F60"/>
<path d="M17.2122 9.30051C17.5595 8.89082 18.1773 9.39098 17.8717 9.83207C17.7692 9.97974 17.7144 10.1553 17.7147 10.335V12.3263C17.4811 12.3021 17.246 12.2961 17.0116 12.3085V9.86629C17.0082 9.65971 17.0794 9.45883 17.2122 9.30051Z" fill="#FE4F60"/>
</svg>
