<svg width="24" height="24" viewBox="0 0 24 24" fill="none" xmlns="http://www.w3.org/2000/svg">
<path d="M9 3.5998V1.7998H15V3.5998H9ZM11.1 14.3998H12.9V8.3998H11.1V14.3998ZM12 21.5998C10.8333 21.5998 9.74233 21.3789 8.727 20.9371C7.71166 20.4954 6.82425 19.8947 6.06475 19.1351C5.30508 18.3756 4.70441 17.4881 4.26275 16.4728C3.82091 15.4575 3.6 14.3665 3.6 13.1998C3.6 12.0331 3.82091 10.9421 4.26275 9.9268C4.70441 8.91147 5.30508 8.02406 6.06475 7.26455C6.82425 6.50489 7.71166 5.90422 8.727 5.46255C9.74233 5.02072 10.8297 4.7998 11.989 4.7998C12.9603 4.7998 13.8925 4.9623 14.7855 5.2873C15.6785 5.6123 16.5083 6.06647 17.275 6.6498L18.575 5.3748L19.825 6.6248L18.55 7.9248C19.1333 8.6748 19.5875 9.49822 19.9125 10.3951C20.2375 11.2919 20.4 12.228 20.4 13.2033C20.4 14.3676 20.1791 15.4575 19.7372 16.4728C19.2956 17.4881 18.6949 18.3756 17.9352 19.1351C17.1757 19.8947 16.2883 20.4954 15.273 20.9371C14.2577 21.3789 13.1667 21.5998 12 21.5998ZM12 19.7998C13.8333 19.7998 15.3917 19.1581 16.675 17.8748C17.9583 16.5915 18.6 15.0331 18.6 13.1998C18.6 11.3665 17.9583 9.80814 16.675 8.5248C15.3917 7.24147 13.8333 6.5998 12 6.5998C10.1667 6.5998 8.60833 7.24147 7.325 8.5248C6.04167 9.80814 5.4 11.3665 5.4 13.1998C5.4 15.0331 6.04167 16.5915 7.325 17.8748C8.60833 19.1581 10.1667 19.7998 12 19.7998Z" fill="#FF3B30"/>
</svg>
