<svg width="39" height="39" viewBox="0 0 39 39" fill="none" xmlns="http://www.w3.org/2000/svg">
<rect width="39" height="39" rx="19.5" fill="#1991A9"/>
<path d="M23.5309 11.5674C26.0378 11.5674 28.0694 13.5989 28.0694 16.0983C28.0694 20.6367 23.5309 22.837 19 27.368C17.8553 26.2251 16.7111 25.2309 15.6405 24.3099H17.8956V22.1859H15.347V19.6373H13.2235V22.1794C11.2707 20.3433 9.93057 18.5662 9.93057 16.0983C9.93057 13.5989 11.9621 11.5674 14.4615 11.5674C16.7307 11.5674 17.8651 12.6943 18.9999 14.9634C20.1348 12.6943 21.2692 11.5674 23.5309 11.5674Z" fill="#EF3E5C"/>
<path d="M10.8056 16.6078C10.8056 14.1084 12.8372 12.0769 15.3366 12.0769C16.028 12.0769 16.6136 12.1821 17.1265 12.3918C16.4233 11.842 15.5806 11.5674 14.4616 11.5674C11.9622 11.5674 9.93062 13.5989 9.93062 16.0983C9.93062 18.5662 11.2708 20.3433 13.2236 22.1794V21.8219C11.7566 20.2753 10.8056 18.6867 10.8056 16.6078Z" fill="#E42A53"/>
<path d="M17.8956 22.1863V24.3102H15.6405H15.347V26.8583H13.2236V24.3102H10.6749V22.1863H13.2236V22.1797V19.6377H15.347V22.1863H17.8956Z" fill="#4DD0E2"/>
<path d="M11.0812 22.5926H13.6298V22.586V20.044H15.347V19.6377H13.2236V22.1797V22.1863H10.6749V24.3102H11.0812V22.5926Z" fill="#3BB3BC"/>
<path d="M19.5949 19.1279H18.745V19.9773H19.5949V19.1279Z" fill="#4DD0E2"/>
<path d="M19.5949 17.8535H18.745V18.7029H19.5949V17.8535Z" fill="#4DD0E2"/>
<path d="M19.5949 16.5791H18.745V17.4289H19.5949V16.5791Z" fill="#4DD0E2"/>
<path d="M22.993 20.7217C22.9173 20.7217 22.843 20.6851 22.7978 20.6173C22.726 20.5096 22.7551 20.3641 22.8628 20.2922C24.3708 19.2869 25.1041 17.896 25.0421 16.1585C24.9951 14.8415 24.4869 13.8062 24.4818 13.796C24.4242 13.6801 24.4712 13.5394 24.587 13.4817C24.7027 13.4241 24.8434 13.4708 24.9012 13.5865C24.9238 13.6317 25.4554 14.7099 25.5099 16.1246C25.5607 17.4439 25.1878 19.3056 23.1228 20.6822C23.0828 20.709 23.0377 20.7217 22.993 20.7217Z" fill="#E42A53"/>
<path d="M27.6648 27.4326H22.9928C22.8633 27.4326 22.7584 27.3277 22.7584 27.1982C22.7584 27.0688 22.8633 26.9639 22.9928 26.9639H27.6648C27.7943 26.9639 27.8992 27.0688 27.8992 27.1982C27.8992 27.3277 27.7943 27.4326 27.6648 27.4326Z" fill="#EF3E5C"/>
</svg>
