<svg width="19" height="19" viewBox="0 0 19 19" fill="none" xmlns="http://www.w3.org/2000/svg">
<g clip-path="url(#clip0_122_9743)">
<path d="M9.42561 16.1943C8.69095 16.188 7.96498 16.0347 7.29049 15.7435C6.616 15.4522 6.00664 15.0289 5.49834 14.4984C4.46634 13.4158 3.89685 11.9736 3.91074 10.4779C3.92463 8.98231 4.5208 7.55095 5.57272 6.48766L9.02396 3.02898C9.09122 2.95658 9.17306 2.89926 9.26409 2.8608C9.35512 2.82233 9.45326 2.8036 9.55206 2.80584C9.651 2.80722 9.74867 2.82832 9.83935 2.86791C9.93003 2.90751 10.0119 2.96479 10.0802 3.03642L13.4719 6.54717C14.5049 7.62884 15.0757 9.07048 15.0632 10.5661C15.0507 12.0618 14.4559 13.4936 13.405 14.5579C12.8874 15.0863 12.2676 15.5039 11.5835 15.7852C10.8994 16.0666 10.1652 16.2057 9.42561 16.1943ZM9.52231 4.61328L6.62892 7.52898C5.84765 8.31904 5.40517 9.38256 5.39544 10.4936C5.38572 11.6047 5.80953 12.6758 6.57685 13.4794C6.94739 13.8616 7.38982 14.1668 7.87872 14.3774C8.36761 14.588 8.89332 14.6999 9.42561 14.7067C9.96464 14.7111 10.4991 14.6075 10.9973 14.4018C11.4956 14.1961 11.9475 13.8926 12.3264 13.5092C13.1102 12.72 13.5537 11.6553 13.5621 10.543C13.5704 9.43084 13.1429 8.35958 12.3711 7.55874L9.52231 4.61328Z" fill="#1991A9"/>
</g>
<defs>
<clipPath id="clip0_122_9743">
<rect width="18" height="18" fill="white" transform="translate(0.5 0.5)"/>
</clipPath>
</defs>
</svg>
