<svg width="39" height="39" viewBox="0 0 39 39" fill="none" xmlns="http://www.w3.org/2000/svg">
<rect width="39" height="39" rx="19.5" fill="#1991A9"/>
<path d="M30.5 10.5C23.9941 10.5 20.5543 15.0472 19.6128 16.515C19.5497 16.5005 19.4838 16.4969 19.418 16.5068C19.2832 16.5293 19.1641 16.6055 19.0869 16.7183C18.667 17.3345 18.2598 18.0703 17.8291 18.8491C17.5596 19.3354 17.2861 19.8301 17 20.313V19.5C17 18.397 16.1025 17.5 15 17.5H9C7.89746 17.5 7 18.397 7 19.5V23.4512C7 26.2314 9.22168 28.4961 11.9512 28.5C11.959 28.5 11.9668 28.5 11.9736 28.5C15.8076 28.5 16.9648 27.0068 17.8955 25.8062C19.1855 24.1411 20.1006 22.3315 20.9863 20.5815C21.3027 19.9556 21.6152 19.3374 21.9395 18.7373C22.0431 18.5463 22.0033 18.3187 21.8599 18.1644C22.709 16.8148 26.0505 12 30.5 12C30.7764 12 31 11.7764 31 11.5V11C31 10.7236 30.7764 10.5 30.5 10.5Z" fill="#303C42"/>
<path d="M20.0938 20.1294C19.2295 21.8374 18.3359 23.6035 17.1045 25.1934C16.2666 26.2744 15.3184 27.4995 11.9736 27.4995C11.9668 27.4995 11.96 27.4995 11.9531 27.4995C9.77344 27.4966 8 25.6802 8 23.4507V19.4995C8 18.9482 8.44824 18.4995 9 18.4995H15C15.5518 18.4995 16 18.9482 16 19.4995V21.9995C16 22.2163 16.1396 22.4082 16.3457 22.4751C16.5508 22.543 16.7773 22.4692 16.9043 22.2935C17.5791 21.3647 18.1514 20.332 18.7041 19.333C19.0225 18.7573 19.3271 18.2056 19.6279 17.7207L20.8574 18.6416C20.5996 19.1294 20.3477 19.627 20.0938 20.1294Z" fill="#D97924"/>
<path opacity="0.1" d="M20.2363 18.6299C19.3721 20.338 18.4785 22.1041 17.2471 23.6939C16.4092 24.775 15.4609 26.0001 12.1162 26.0001C12.1094 26.0001 12.1025 26.0001 12.0957 26.0001C9.91602 25.9971 8.14258 24.1807 8.14258 21.9512V19.0165C8.05994 19.162 8 19.3212 8 19.5001V23.4512C8 25.6807 9.77344 27.4971 11.9531 27.5001C11.96 27.5001 11.9668 27.5001 11.9736 27.5001C15.3184 27.5001 16.2666 26.275 17.1045 25.1939C18.3359 23.6041 19.2295 21.838 20.0938 20.1299C20.3477 19.6275 20.5996 19.1299 20.8574 18.6422L20.4043 18.3027C20.3486 18.4127 20.2922 18.5195 20.2363 18.6299Z" fill="black"/>
<path d="M21.063 17.5477L20.4362 17.0777C21.0273 16.1484 22.8536 13.6511 26.1074 12.3359C23.5269 13.9221 21.7355 16.4823 21.063 17.5477Z" fill="#AB6116"/>
<path d="M14.5 12.5H9.5C8.67285 12.5 8 13.1729 8 14C8 14.8271 8.67285 15.5 9.5 15.5H11C11.2754 15.5 11.5 15.7241 11.5 16C11.5 16.2764 11.7236 16.5 12 16.5C12.2764 16.5 12.5 16.2764 12.5 16C12.5 15.1729 11.8271 14.5 11 14.5H9.5C9.22461 14.5 9 14.2759 9 14C9 13.7241 9.22461 13.5 9.5 13.5H14.5C15.3271 13.5 16 12.8271 16 12C16 11.1729 15.3271 10.5 14.5 10.5H8.5C8.22363 10.5 8 10.7236 8 11C8 11.2764 8.22363 11.5 8.5 11.5H14.5C14.7754 11.5 15 11.7241 15 12C15 12.2759 14.7754 12.5 14.5 12.5Z" fill="#989DA0"/>
<path d="M30.5 10.5C23.9941 10.5 20.5543 15.0472 19.6128 16.515C19.5497 16.5005 19.4838 16.4969 19.418 16.5068C19.2832 16.5293 19.1641 16.6055 19.0869 16.7183C18.667 17.3345 18.2598 18.0703 17.8291 18.8491C17.5596 19.3354 17.2861 19.8301 17 20.313V19.5C17 18.397 16.1025 17.5 15 17.5H9C7.89746 17.5 7 18.397 7 19.5V23.4512C7 26.2314 9.22168 28.4961 11.9512 28.5H11.9736C15.8076 28.5 16.9648 27.0068 17.8955 25.8062C19.1855 24.1411 20.1006 22.3315 20.9863 20.5815C21.3027 19.9556 21.6152 19.3374 21.9395 18.7373C22.0431 18.5463 22.0033 18.3187 21.8599 18.1644C22.709 16.8148 26.0505 12 30.5 12C30.7764 12 31 11.7764 31 11.5V11C31 10.7236 30.7764 10.5 30.5 10.5ZM14.5 12.5H9.5C8.67285 12.5 8 13.1729 8 14C8 14.8271 8.67285 15.5 9.5 15.5H11C11.2754 15.5 11.5 15.7241 11.5 16C11.5 16.2764 11.7236 16.5 12 16.5C12.2764 16.5 12.5 16.2764 12.5 16C12.5 15.1729 11.8271 14.5 11 14.5H9.5C9.22461 14.5 9 14.2759 9 14C9 13.7241 9.22461 13.5 9.5 13.5H14.5C15.3271 13.5 16 12.8271 16 12C16 11.1729 15.3271 10.5 14.5 10.5H8.5C8.22363 10.5 8 10.7236 8 11C8 11.2764 8.22363 11.5 8.5 11.5H14.5C14.7754 11.5 15 11.7241 15 12C15 12.2759 14.7754 12.5 14.5 12.5Z" fill="url(#paint0_linear_340_1839)"/>
<defs>
<linearGradient id="paint0_linear_340_1839" x1="6.97799" y1="13.0804" x2="26.1468" y2="22.019" gradientUnits="userSpaceOnUse">
<stop stop-color="white" stop-opacity="0.2"/>
<stop offset="1" stop-color="white" stop-opacity="0"/>
</linearGradient>
</defs>
</svg>
