<svg width="24" height="24" viewBox="0 0 24 24" fill="none" xmlns="http://www.w3.org/2000/svg">
<path fill-rule="evenodd" clip-rule="evenodd" d="M12.6105 1.5C6.807 1.5 2.09475 6.2055 2.09475 12C2.09475 12.1989 2.17377 12.3897 2.31442 12.5303C2.45507 12.671 2.64584 12.75 2.84475 12.75C3.04366 12.75 3.23443 12.671 3.37508 12.5303C3.51573 12.3897 3.59475 12.1989 3.59475 12C3.59475 7.03275 7.63575 3 12.6105 3C15.6232 3 18.288 4.48125 19.926 6.75H19.2615C18.8475 6.75075 18.51 7.086 18.51 7.5C18.51 7.914 18.8475 8.24925 19.2615 8.25H21.5625C21.9765 8.25 22.3118 7.914 22.3125 7.5V5.202C22.3125 5.00309 22.2335 4.81232 22.0928 4.67167C21.9522 4.53102 21.7614 4.452 21.5625 4.452C21.3636 4.452 21.1728 4.53102 21.0322 4.67167C20.8915 4.81232 20.8125 5.00309 20.8125 5.202V5.439C18.885 3.03975 15.9285 1.5 12.6105 1.5ZM10.4557 7.5C10.2568 7.5 10.0661 7.57902 9.92542 7.71967C9.78477 7.86032 9.70575 8.05109 9.70575 8.25V9.75H8.20575C8.00684 9.75 7.81607 9.82902 7.67542 9.96967C7.53477 10.1103 7.45575 10.3011 7.45575 10.5V13.5C7.45575 13.6989 7.53477 13.8897 7.67542 14.0303C7.81607 14.171 8.00684 14.25 8.20575 14.25H9.70575V15.75C9.70575 15.9489 9.78477 16.1397 9.92542 16.2803C10.0661 16.421 10.2568 16.5 10.4557 16.5H13.4557C13.6547 16.5 13.8454 16.421 13.9861 16.2803C14.1267 16.1397 14.2057 15.9489 14.2057 15.75V14.25H15.7057C15.9047 14.25 16.0954 14.171 16.2361 14.0303C16.3767 13.8897 16.4557 13.6989 16.4557 13.5V10.5C16.4557 10.3011 16.3767 10.1103 16.2361 9.96967C16.0954 9.82902 15.9047 9.75 15.7057 9.75H14.2057V8.25C14.2057 8.05109 14.1267 7.86032 13.9861 7.71967C13.8454 7.57902 13.6547 7.5 13.4557 7.5H10.4557ZM21.5625 11.25C21.3636 11.25 21.1728 11.329 21.0322 11.4697C20.8915 11.6103 20.8125 11.8011 20.8125 12C20.8125 16.9672 16.7715 21 11.7968 21C8.61075 21 5.81325 19.3447 4.20825 16.8517H4.7385C4.93749 16.8516 5.12829 16.7725 5.26914 16.632C5.40999 16.4914 5.48941 16.3007 5.49 16.1017C5.49 15.687 5.1525 15.351 4.7385 15.3502H2.4375C2.0235 15.3502 1.68825 15.687 1.6875 16.1017V18.3983C1.6877 18.5972 1.76673 18.788 1.9073 18.9289C2.04786 19.0697 2.23851 19.1492 2.4375 19.1497C2.63649 19.1492 2.82714 19.0697 2.9677 18.9289C3.10827 18.788 3.1873 18.5972 3.1875 18.3983V18.0187C5.0895 20.7262 8.23575 22.5 11.7968 22.5C17.6003 22.5 22.3125 17.7945 22.3125 12C22.3125 11.8011 22.2335 11.6103 22.0928 11.4697C21.9522 11.329 21.7614 11.25 21.5625 11.25Z" fill="#BEBEBE"/>
</svg>
