<svg width="17" height="17" viewBox="0 0 17 17" fill="none" xmlns="http://www.w3.org/2000/svg">
<g clip-path="url(#clip0_246_2954)">
<path d="M6.97334 8.02682C6.8478 7.90129 6.67754 7.83076 6.50001 7.83076C6.32247 7.83076 6.15221 7.90129 6.02667 8.02682C5.90114 8.15236 5.83061 8.32262 5.83061 8.50016C5.83061 8.67769 5.90114 8.84796 6.02667 8.97349L8.02667 10.9735C8.08897 11.0353 8.16284 11.0842 8.24407 11.1173C8.32529 11.1505 8.41227 11.1673 8.50001 11.1668C8.59127 11.1639 8.68097 11.1423 8.76354 11.1033C8.84611 11.0643 8.91979 11.0088 8.98001 10.9402L13.6467 5.60682C13.7544 5.47304 13.8064 5.30283 13.7917 5.13168C13.777 4.96053 13.6969 4.80165 13.5679 4.68816C13.4389 4.57468 13.2712 4.51536 13.0995 4.52256C12.9279 4.52976 12.7657 4.60294 12.6467 4.72682L8.50001 9.52682L6.97334 8.02682Z" fill="#1991A9"/>
<path d="M14.5 7.8335C14.3232 7.8335 14.1536 7.90373 14.0286 8.02876C13.9036 8.15378 13.8333 8.32335 13.8333 8.50016C13.8333 9.91465 13.2714 11.2712 12.2712 12.2714C11.271 13.2716 9.91449 13.8335 8.5 13.8335C7.44673 13.833 6.41718 13.5207 5.54118 12.9359C4.66518 12.351 3.98195 11.5199 3.57766 10.5473C3.17336 9.57475 3.0661 8.50423 3.2694 7.47076C3.47269 6.43729 3.97744 5.48715 4.72 4.74016C5.2138 4.23975 5.80246 3.84286 6.45151 3.57271C7.10056 3.30255 7.79698 3.16457 8.5 3.16683C8.9263 3.1695 9.35104 3.21868 9.76667 3.3135C9.85365 3.3404 9.94521 3.3492 10.0357 3.33936C10.1262 3.32952 10.2138 3.30125 10.2929 3.25628C10.3721 3.21132 10.4412 3.15061 10.496 3.07791C10.5508 3.00521 10.5902 2.92206 10.6116 2.83357C10.633 2.74509 10.6361 2.65315 10.6207 2.56343C10.6052 2.47371 10.5715 2.3881 10.5217 2.31189C10.4719 2.23568 10.407 2.17048 10.3311 2.1203C10.2551 2.07013 10.1696 2.03605 10.08 2.02016C9.5621 1.89832 9.03204 1.8357 8.5 1.8335C7.18289 1.84034 5.89733 2.23718 4.80553 2.97393C3.71374 3.71069 2.86465 4.75434 2.36542 5.97318C1.86618 7.19203 1.73917 8.53145 2.00043 9.8224C2.26168 11.1134 2.89948 12.298 3.83334 13.2268C5.07113 14.4652 6.7491 15.1627 8.5 15.1668C10.2681 15.1668 11.9638 14.4645 13.214 13.2142C14.4643 11.964 15.1667 10.2683 15.1667 8.50016C15.1667 8.32335 15.0964 8.15378 14.9714 8.02876C14.8464 7.90373 14.6768 7.8335 14.5 7.8335Z" fill="#1991A9"/>
</g>
<defs>
<clipPath id="clip0_246_2954">
<rect width="16" height="16" fill="white" transform="translate(0.5 0.5)"/>
</clipPath>
</defs>
</svg>
