<svg width="39" height="40" viewBox="0 0 39 40" fill="none" xmlns="http://www.w3.org/2000/svg">
<rect y="0.357422" width="39" height="39" rx="19.5" fill="#1991A9"/>
<path d="M25 28.8574H14.2938C13.8813 28.8574 13.5625 28.4637 13.5625 28.0699V15.5074C13.5625 15.3012 13.7125 15.1699 13.9188 15.1699H25.3563C25.5625 15.1699 25.75 15.3012 25.75 15.5074V28.0512C25.75 28.4637 25.4125 28.8574 25 28.8574Z" fill="#E2E2E2"/>
<path d="M22.7875 28.8572C23.2937 28.8572 23.6312 28.3322 23.4812 27.8447C23.1062 26.7197 22.5625 25.651 21.625 24.7885C19.5625 22.6135 16 22.6135 13.9375 24.7885C13.1875 25.651 12.475 26.7385 12.1 27.8635C11.9312 28.351 12.3062 28.876 12.8125 28.876H22.7875V28.8572Z" fill="#C1C1C0"/>
<path d="M23.5187 28.8574H12.8125C12.4 28.8574 12.0625 28.4637 12.0625 28.0699V15.5074C12.0625 15.3012 12.25 15.1699 12.4563 15.1699H23.8937C24.1 15.1699 24.25 15.3012 24.25 15.5074V28.0512C24.25 28.4637 23.9312 28.8574 23.5187 28.8574Z" fill="#E2E2E2"/>
<path d="M23.5187 28.8574H12.8125C12.4 28.8574 12.0625 28.4637 12.0625 28.0699V15.5074C12.0625 15.3012 12.25 15.1699 12.4563 15.1699H23.8937C24.1 15.1699 24.25 15.3012 24.25 15.5074V28.0512C24.25 28.4637 23.9312 28.8574 23.5187 28.8574Z" stroke="#3D3D3D" stroke-width="0.375" stroke-miterlimit="10"/>
<path d="M24.625 28.8572C25.1313 28.8572 25.4875 28.3322 25.3375 27.8447C24.9625 26.7197 24.25 25.651 23.5 24.7885C21.4375 22.6135 17.875 22.6135 15.8125 24.7885C14.875 25.651 14.3313 26.7385 13.9563 27.8635C13.7875 28.351 14.1438 28.876 14.65 28.876H24.625V28.8572Z" fill="#C1C1C0"/>
<path d="M22 21.5449C19.9 23.6074 16.4313 23.6074 14.3313 21.5449C12.8875 20.0449 12.0813 18.0387 12.0813 15.9762V15.5074C12.0813 15.3012 12.2688 15.1699 12.475 15.1699H23.9125C24.1188 15.1699 24.2688 15.3012 24.2688 15.5074V15.9762C24.25 18.0387 23.4438 20.0449 22 21.5449Z" fill="#DD3B86"/>
<path d="M22 21.5449C19.9 23.6074 16.4313 23.6074 14.3313 21.5449C12.8875 20.0449 12.0813 18.0387 12.0813 15.9762V15.5074C12.0813 15.3012 12.2688 15.1699 12.475 15.1699H23.9125C24.1188 15.1699 24.2688 15.3012 24.2688 15.5074V15.9762C24.25 18.0387 23.4438 20.0449 22 21.5449Z" stroke="#3D3D3D" stroke-width="0.375" stroke-miterlimit="10"/>
<path d="M25 28.8574H14.2938C13.8813 28.8574 13.5625 28.4637 13.5625 28.0699V15.5074C13.5625 15.3012 13.7125 15.1699 13.9188 15.1699H25.3563C25.5625 15.1699 25.75 15.3012 25.75 15.5074V28.0512C25.75 28.4637 25.4125 28.8574 25 28.8574Z" stroke="#3D3D3D" stroke-width="0.375" stroke-miterlimit="10"/>
<path d="M23.5 21.5449C21.4 23.6074 17.9125 23.6074 15.8125 21.5449C14.3688 20.0449 13.5625 18.0387 13.5625 15.9762V15.5074C13.5625 15.3012 13.7125 15.1699 13.9188 15.1699H25.3563C25.5625 15.1699 25.75 15.3012 25.75 15.5074V15.9762C25.75 18.0387 24.9438 20.0449 23.5 21.5449Z" fill="#E875AE"/>
<path d="M23.5 21.5449C21.4 23.6074 17.9125 23.6074 15.8125 21.5449C14.3688 20.0449 13.5625 18.0387 13.5625 15.9762V15.5074C13.5625 15.3012 13.7125 15.1699 13.9188 15.1699H25.3563C25.5625 15.1699 25.75 15.3012 25.75 15.5074V15.9762C25.75 18.0387 24.9437 20.0449 23.5 21.5449Z" stroke="#3D3D3D" stroke-width="0.375" stroke-miterlimit="10"/>
<path d="M18.8125 23.0449V18.9199" stroke="#3D3D3D" stroke-width="0.375" stroke-miterlimit="10"/>
<path d="M16.9375 22.2949V18.1699" stroke="#3D3D3D" stroke-width="0.375" stroke-miterlimit="10"/>
<path d="M15.0625 20.6074V16.6699" stroke="#3D3D3D" stroke-width="0.375" stroke-miterlimit="10"/>
<path d="M20.5 23.0449V18.9199" stroke="#3D3D3D" stroke-width="0.375" stroke-miterlimit="10"/>
<path d="M22.375 22.2949V18.1699" stroke="#3D3D3D" stroke-width="0.375" stroke-miterlimit="10"/>
<path d="M24.25 20.6074V16.6699" stroke="#3D3D3D" stroke-width="0.375" stroke-miterlimit="10"/>
<path d="M20.5 13.6699H16.9375V15.1699H20.5V13.6699Z" stroke="#3D3D3D" stroke-width="0.375" stroke-miterlimit="10"/>
<path d="M22 11.9449C22 10.8199 21.1 9.91992 19.975 9.91992H17.4625C16.3375 9.91992 15.4375 10.8199 15.4375 11.9449V12.0012C15.4375 13.1262 16.3375 14.0262 17.4625 14.0262H19.9562C21.0812 14.0262 21.9813 13.1262 21.9813 12.0012V11.9449H22Z" fill="white"/>
<path d="M22 11.9449C22 10.8199 21.1 9.91992 19.975 9.91992H17.4625C16.3375 9.91992 15.4375 10.8199 15.4375 11.9449V12.0012C15.4375 13.1262 16.3375 14.0262 17.4625 14.0262H19.9562C21.0812 14.0262 21.9813 13.1262 21.9813 12.0012V11.9449H22Z" stroke="#3D3D3D" stroke-width="0.375" stroke-miterlimit="10"/>
<path d="M18.25 14.0449V12.5449" stroke="#3D3D3D" stroke-width="0.375" stroke-miterlimit="10"/>
<path d="M19.1875 14.0449V12.5449" stroke="#3D3D3D" stroke-width="0.375" stroke-miterlimit="10"/>
<path d="M17.3125 14.0449V12.5449" stroke="#3D3D3D" stroke-width="0.375" stroke-miterlimit="10"/>
<path d="M16.375 13.6699V12.5449" stroke="#3D3D3D" stroke-width="0.375" stroke-miterlimit="10"/>
<path d="M20.125 13.8574V12.5449" stroke="#3D3D3D" stroke-width="0.375" stroke-miterlimit="10"/>
<path d="M21.0625 13.6699V12.5449" stroke="#3D3D3D" stroke-width="0.375" stroke-miterlimit="10"/>
</svg>
